<svg width="32" height="32" viewBox="0 0 32 32" fill="none" xmlns="http://www.w3.org/2000/svg">
<path d="M19.7625 3.3475L12.4075 8.22C12.4075 8.22 12.6575 8.575 12.8275 8.7375C13.1825 9.0775 13.4125 9.19 13.4125 9.19L13.2675 9.69L11.435 10.7525C11.435 10.7525 11.37 11.5925 12.305 12.0775C13.08 12.48 13.8525 12.4825 13.8525 12.4825V13.69C13.8525 13.69 14.6225 15.19 16.1875 15.19C17.7525 15.19 18.5 13.4825 18.5 13.4825L18.52 12.44C18.52 12.44 19.225 12.37 19.8975 11.9775C20.4075 11.6775 20.5875 11.1875 20.5925 10.77C20.5975 10.415 20.565 10.345 20.565 10.345L18.435 9.2325C18.435 9.2325 19.3825 8.6575 19.8925 7.3575C20.8525 4.92 19.7625 3.3475 19.7625 3.3475V3.3475ZM15.83 19.13L10.5275 20.3925C10.5275 20.3925 10.3875 20.5875 10.39 20.7975C10.395 21.15 10.545 21.2325 10.545 21.2325L8.42753 23.8C8.42753 23.8 8.18003 24.3075 8.19253 24.95C8.20503 25.565 8.46003 25.9425 8.49503 25.925L7.80753 26.8425L7.37003 27.03C7.37003 27.03 7.13253 27.415 7.16253 27.885C7.20003 28.465 7.57503 29.0825 9.03753 29.76C10.55 30.4625 12.185 31.0925 15.9775 31.0925C19.77 31.0925 22.645 30.3425 23.8325 29.51C25.02 28.6775 25.115 27.9525 25.135 27.64C25.1503 27.4076 25.1028 27.1753 24.9975 26.9675C24.9875 26.95 24.965 26.915 24.965 26.915L24.0275 25.9025C24.0275 25.9025 24.2525 25.345 24.225 24.7525C24.19 24.005 23.8125 23.465 23.8125 23.465L21.6025 21.5475L21.6225 21.0475C21.6225 21.0475 21.66 20.8875 21.5875 20.62C21.525 20.39 21.475 20.2625 21.4225 20.1825C21.2675 19.945 21.0775 19.97 21.0775 19.97L15.83 19.13V19.13Z" fill="#474C50"/>
<path d="M12.4 8.21999C12.4 8.21999 11.2275 6.77249 11.7275 4.47999C12.2275 2.18749 14.2875 0.709993 16.6225 1.04249C18.9575 1.37499 19.895 3.58499 19.895 3.58499C19.895 3.58499 19.8275 6.33999 17.305 7.67499C14.7825 9.00999 12.4 8.21999 12.4 8.21999V8.21999Z" fill="#5E6367"/>
<path d="M15.665 1.77251C16.2175 2.08751 15.9175 2.44001 15.0825 2.98001C14.3075 3.48251 13.375 4.96001 13.1225 5.33501C12.87 5.71001 12.705 5.75251 12.58 5.66751C12.455 5.58251 12.06 5.37501 12.4125 4.18751C12.765 3.00001 13.705 2.25001 14.1625 1.97751C14.6225 1.71001 15.2275 1.52251 15.665 1.77251V1.77251Z" fill="#FFFFFE"/>
<path d="M13.4125 9.19C13.4125 9.19 14.59 9.975 15.86 9.99C17.6525 10.0075 18.435 9.2325 18.435 9.2325C18.435 9.2325 19.2825 9.145 19.8875 9.46C20.4175 9.735 20.565 10.35 20.565 10.35C20.565 10.35 20.005 11.8075 15.925 11.6975C11.8425 11.5875 11.435 10.755 11.435 10.755C11.435 10.755 11.3275 9.8975 12.055 9.4775C12.665 9.1225 13.4125 9.19 13.4125 9.19V9.19Z" fill="#5E6367"/>
<path d="M12.6575 9.62249C12.2675 9.58499 11.67 9.82499 11.7425 10.355C11.815 10.885 13.025 11.125 13.61 11.16C14.195 11.195 15.13 11.27 15.11 10.72C15.0925 10.17 13.6825 10.445 13.1325 10.1525C12.5825 9.85999 13.225 9.67749 12.6575 9.62249Z" fill="#AEAEAF"/>
<path d="M13.85 13.6925C13.85 13.6925 14.5975 14.0175 16.1525 14.0175C17.7075 14.0175 18.4975 13.485 18.4975 13.485C18.4975 13.485 18.495 15.245 19.2275 17.02C19.96 18.795 20.49 19.655 20.49 19.655C20.49 19.655 20.9675 19.6225 21.15 19.77C21.3325 19.9175 21.51 20.365 21.51 20.365C21.45 20.4475 20.1475 21.655 16.235 21.57C12.0625 21.48 10.5275 20.39 10.5275 20.39C10.5275 20.39 10.7725 19.9825 11.0525 19.89C11.39 19.7775 11.6075 19.8075 11.6075 19.8075C11.6075 19.8075 12.86 18.3 13.3725 16.8175C13.8825 15.335 13.85 13.6925 13.85 13.6925V13.6925Z" fill="#5E6367"/>
<path d="M16.0625 20.4225C17.6 20.4225 18.9375 20.1125 19.505 19.9475C20.0725 19.7825 20.5025 19.505 20.9425 19.6525C21.19 19.735 21.285 19.9225 21.285 19.9225C21.285 19.9225 19.65 21.2975 16.045 21.1575C12.2025 21.01 10.7325 20.13 10.7325 20.13C10.7325 20.13 10.9825 19.7725 11.545 19.8075C11.695 19.8175 11.835 19.86 12.695 20.06C13.555 20.26 14.56 20.4225 16.0625 20.4225V20.4225Z" fill="#B0B0AF"/>
<path d="M10.545 21.23C10.545 21.23 13.0775 22.2325 16.0625 22.2725C20.055 22.325 21.625 21.0475 21.625 21.0475C21.625 21.0475 22.5625 21.9075 22.945 22.31C23.3275 22.7125 23.8125 23.465 23.8125 23.465C23.8125 23.465 22.14 26.2275 16.0275 26.1725C9.91249 26.1175 8.42749 23.8 8.42749 23.8C8.42749 23.8 8.74999 22.955 9.41749 22.255C9.82749 21.8225 10.545 21.23 10.545 21.23V21.23Z" fill="#5E6367"/>
<path d="M10.4975 22.3625C10.0425 22.24 9.14252 23.15 9.25252 23.7175C9.30752 24.0075 9.47002 24.33 10.35 24.65C11.155 24.9425 12.4 24.9275 12.4 24.4475C12.4 23.825 11.32 23.8825 11.045 23.33C10.8275 22.895 10.9725 22.4925 10.4975 22.3625V22.3625Z" fill="#B0B0AF"/>
<path d="M8.495 25.9225C8.495 25.9225 8.135 26.1675 7.855 26.4425C7.5025 26.79 7.37 27.0275 7.37 27.0275C7.37 27.0275 8.1775 29.9325 15.9375 29.995C23.535 30.0575 24.965 26.9125 24.965 26.9125C24.965 26.9125 24.7175 26.555 24.4575 26.295C24.1975 26.035 24.025 25.9025 24.025 25.9025C24.025 25.9025 21.8225 28.39 15.885 28.325C10.225 28.2675 8.495 25.9225 8.495 25.9225V25.9225Z" fill="#5E6367"/>
<path d="M8.10499 26.7225C7.89749 26.955 7.90499 27.4375 8.51749 27.84C9.17249 28.27 10.2275 28.8825 11.74 29.165C13.28 29.4525 14.885 29.365 14.785 28.85C14.7175 28.4975 13.3825 28.8925 11.015 27.955C9.62499 27.405 9.19499 27.1025 8.91249 26.9025C8.72999 26.77 8.40499 26.3875 8.10499 26.7225V26.7225ZM9.89749 24.07C10.38 24.07 10.38 23.32 9.89749 23.32C9.41499 23.32 9.41499 24.07 9.89749 24.07Z" fill="#B0B0AF"/>
</svg>
